<mxfile host="app.diagrams.net" agent="Mozilla/5.0 (Windows NT 10.0; Win64; x64) AppleWebKit/537.36 (KHTML, like Gecko) Chrome/127.0.0.0 Safari/537.36" version="24.7.7">
  <diagram name="Page-1" id="ry_jRe4qEC-aKRxP1xIr">
    <mxGraphModel dx="1500" dy="814" grid="1" gridSize="10" guides="1" tooltips="1" connect="1" arrows="1" fold="1" page="1" pageScale="1" pageWidth="827" pageHeight="1169" math="0" shadow="0">
      <root>
        <mxCell id="0" />
        <mxCell id="1" parent="0" />
        <mxCell id="bAg9H6TD8A-TBEvWQ7Vd-1" value="" style="rounded=0;whiteSpace=wrap;html=1;" parent="1" vertex="1">
          <mxGeometry x="120" y="310" width="240" height="240" as="geometry" />
        </mxCell>
        <mxCell id="bAg9H6TD8A-TBEvWQ7Vd-2" value="Index.php" style="text;html=1;align=center;verticalAlign=middle;whiteSpace=wrap;rounded=0;" parent="1" vertex="1">
          <mxGeometry x="210" y="320" width="60" height="30" as="geometry" />
        </mxCell>
        <mxCell id="bAg9H6TD8A-TBEvWQ7Vd-4" value="Funktioner" style="text;strokeColor=none;fillColor=none;html=1;fontSize=24;fontStyle=1;verticalAlign=middle;align=center;" parent="1" vertex="1">
          <mxGeometry x="190" y="360" width="100" height="40" as="geometry" />
        </mxCell>
        <mxCell id="bAg9H6TD8A-TBEvWQ7Vd-5" value="loginUser()&lt;div&gt;&lt;br&gt;&lt;/div&gt;&lt;div&gt;sanitizeInput()&lt;br&gt;&lt;/div&gt;" style="text;html=1;align=left;verticalAlign=middle;whiteSpace=wrap;rounded=0;" parent="1" vertex="1">
          <mxGeometry x="175" y="400" width="130" height="130" as="geometry" />
        </mxCell>
        <mxCell id="bAg9H6TD8A-TBEvWQ7Vd-6" value="" style="rounded=0;whiteSpace=wrap;html=1;strokeColor=#319fff;" parent="1" vertex="1">
          <mxGeometry x="400" y="310" width="240" height="240" as="geometry" />
        </mxCell>
        <mxCell id="bAg9H6TD8A-TBEvWQ7Vd-7" value="mechanic.php" style="text;html=1;align=center;verticalAlign=middle;whiteSpace=wrap;rounded=0;" parent="1" vertex="1">
          <mxGeometry x="490" y="320" width="60" height="30" as="geometry" />
        </mxCell>
        <mxCell id="bAg9H6TD8A-TBEvWQ7Vd-8" value="Funktioner" style="text;strokeColor=none;fillColor=none;html=1;fontSize=24;fontStyle=1;verticalAlign=middle;align=center;" parent="1" vertex="1">
          <mxGeometry x="470" y="360" width="100" height="40" as="geometry" />
        </mxCell>
        <mxCell id="bAg9H6TD8A-TBEvWQ7Vd-9" value="selectAllProjects()&lt;div&gt;&lt;div&gt;&lt;br&gt;&lt;/div&gt;&lt;div&gt;populateProjectField()&lt;/div&gt;&lt;/div&gt;&lt;div&gt;&lt;br&gt;&lt;/div&gt;&lt;div&gt;checkUserRole()&lt;/div&gt;" style="text;html=1;align=left;verticalAlign=middle;whiteSpace=wrap;rounded=0;" parent="1" vertex="1">
          <mxGeometry x="455" y="400" width="130" height="130" as="geometry" />
        </mxCell>
        <mxCell id="bAg9H6TD8A-TBEvWQ7Vd-16" value="" style="shape=actor;whiteSpace=wrap;html=1;strokeColor=#FFFFFF;fillColor=#007FFF;" parent="1" vertex="1">
          <mxGeometry x="30" y="70" width="40" height="60" as="geometry" />
        </mxCell>
        <mxCell id="bAg9H6TD8A-TBEvWQ7Vd-17" value="Mechanic" style="text;html=1;align=center;verticalAlign=middle;whiteSpace=wrap;rounded=0;" parent="1" vertex="1">
          <mxGeometry x="20" y="130" width="60" height="30" as="geometry" />
        </mxCell>
        <mxCell id="bAg9H6TD8A-TBEvWQ7Vd-18" value="" style="shape=actor;whiteSpace=wrap;html=1;strokeColor=#FFFFFF;fillColor=#33FF33;" parent="1" vertex="1">
          <mxGeometry x="30" y="170" width="40" height="60" as="geometry" />
        </mxCell>
        <mxCell id="bAg9H6TD8A-TBEvWQ7Vd-19" value="Accountant" style="text;html=1;align=center;verticalAlign=middle;whiteSpace=wrap;rounded=0;" parent="1" vertex="1">
          <mxGeometry x="20" y="230" width="60" height="30" as="geometry" />
        </mxCell>
        <mxCell id="bAg9H6TD8A-TBEvWQ7Vd-20" value="" style="shape=actor;whiteSpace=wrap;html=1;strokeColor=#FFFFFF;fillColor=#FF9933;" parent="1" vertex="1">
          <mxGeometry x="30" y="270" width="40" height="60" as="geometry" />
        </mxCell>
        <mxCell id="bAg9H6TD8A-TBEvWQ7Vd-21" value="Boss" style="text;html=1;align=center;verticalAlign=middle;whiteSpace=wrap;rounded=0;" parent="1" vertex="1">
          <mxGeometry x="20" y="330" width="60" height="30" as="geometry" />
        </mxCell>
        <mxCell id="bAg9H6TD8A-TBEvWQ7Vd-22" value="" style="endArrow=classic;startArrow=classic;html=1;rounded=0;exitX=1;exitY=0.5;exitDx=0;exitDy=0;entryX=0;entryY=0.5;entryDx=0;entryDy=0;" parent="1" source="bAg9H6TD8A-TBEvWQ7Vd-1" target="bAg9H6TD8A-TBEvWQ7Vd-6" edge="1">
          <mxGeometry width="50" height="50" relative="1" as="geometry">
            <mxPoint x="400" y="660" as="sourcePoint" />
            <mxPoint x="450" y="610" as="targetPoint" />
          </mxGeometry>
        </mxCell>
        <mxCell id="bAg9H6TD8A-TBEvWQ7Vd-25" value="" style="endArrow=classic;html=1;rounded=0;entryX=0.563;entryY=-0.013;entryDx=0;entryDy=0;entryPerimeter=0;exitX=0.208;exitY=-0.012;exitDx=0;exitDy=0;exitPerimeter=0;" parent="1" source="bAg9H6TD8A-TBEvWQ7Vd-39" target="bAg9H6TD8A-TBEvWQ7Vd-26" edge="1">
          <mxGeometry width="50" height="50" relative="1" as="geometry">
            <mxPoint x="70" y="560" as="sourcePoint" />
            <mxPoint x="1230" y="185" as="targetPoint" />
            <Array as="points">
              <mxPoint x="440" y="10" />
              <mxPoint x="90" y="10" />
              <mxPoint x="90" y="560" />
              <mxPoint x="235" y="560" />
            </Array>
          </mxGeometry>
        </mxCell>
        <mxCell id="bAg9H6TD8A-TBEvWQ7Vd-26" value="" style="rounded=0;whiteSpace=wrap;html=1;strokeColor=#000000;" parent="1" vertex="1">
          <mxGeometry x="100" y="600" width="240" height="240" as="geometry" />
        </mxCell>
        <mxCell id="bAg9H6TD8A-TBEvWQ7Vd-28" value="Funktioner" style="text;strokeColor=none;fillColor=none;html=1;fontSize=24;fontStyle=1;verticalAlign=middle;align=center;" parent="1" vertex="1">
          <mxGeometry x="170" y="650" width="100" height="40" as="geometry" />
        </mxCell>
        <mxCell id="bAg9H6TD8A-TBEvWQ7Vd-29" value="registerUser()&lt;div&gt;&lt;br&gt;&lt;/div&gt;&lt;div&gt;sanitizeInput()&lt;/div&gt;" style="text;html=1;align=left;verticalAlign=middle;whiteSpace=wrap;rounded=0;" parent="1" vertex="1">
          <mxGeometry x="155" y="690" width="130" height="130" as="geometry" />
        </mxCell>
        <mxCell id="bAg9H6TD8A-TBEvWQ7Vd-30" value="" style="rounded=0;whiteSpace=wrap;html=1;strokeColor=#319fff;" parent="1" vertex="1">
          <mxGeometry x="400" y="630" width="240" height="240" as="geometry" />
        </mxCell>
        <mxCell id="bAg9H6TD8A-TBEvWQ7Vd-31" value="newProject.php" style="text;html=1;align=center;verticalAlign=middle;whiteSpace=wrap;rounded=0;" parent="1" vertex="1">
          <mxGeometry x="490" y="640" width="60" height="30" as="geometry" />
        </mxCell>
        <mxCell id="bAg9H6TD8A-TBEvWQ7Vd-32" value="Funktioner" style="text;strokeColor=none;fillColor=none;html=1;fontSize=24;fontStyle=1;verticalAlign=middle;align=center;" parent="1" vertex="1">
          <mxGeometry x="470" y="680" width="100" height="40" as="geometry" />
        </mxCell>
        <mxCell id="bAg9H6TD8A-TBEvWQ7Vd-33" value="insertNewCustomer()&lt;div&gt;&lt;br&gt;&lt;/div&gt;&lt;div&gt;insertNewCar()&lt;/div&gt;&lt;div&gt;&lt;br&gt;&lt;/div&gt;&lt;div&gt;insertNewProject()&lt;/div&gt;&lt;div&gt;&lt;br&gt;&lt;/div&gt;&lt;div&gt;sanitizeInput()&lt;br&gt;&lt;/div&gt;" style="text;html=1;align=left;verticalAlign=middle;whiteSpace=wrap;rounded=0;" parent="1" vertex="1">
          <mxGeometry x="455" y="720" width="130" height="130" as="geometry" />
        </mxCell>
        <mxCell id="bAg9H6TD8A-TBEvWQ7Vd-34" value="" style="endArrow=classic;html=1;rounded=0;exitX=0;exitY=1;exitDx=0;exitDy=0;entryX=0.5;entryY=0;entryDx=0;entryDy=0;" parent="1" edge="1">
          <mxGeometry width="50" height="50" relative="1" as="geometry">
            <mxPoint x="522.5" y="550" as="sourcePoint" />
            <mxPoint x="517.5" y="630" as="targetPoint" />
            <Array as="points" />
          </mxGeometry>
        </mxCell>
        <mxCell id="bAg9H6TD8A-TBEvWQ7Vd-35" value="" style="rounded=0;whiteSpace=wrap;html=1;strokeColor=#007600;" parent="1" vertex="1">
          <mxGeometry x="120" y="40" width="240" height="240" as="geometry" />
        </mxCell>
        <mxCell id="bAg9H6TD8A-TBEvWQ7Vd-36" value="accounting.php" style="text;html=1;align=center;verticalAlign=middle;whiteSpace=wrap;rounded=0;" parent="1" vertex="1">
          <mxGeometry x="210" y="50" width="60" height="30" as="geometry" />
        </mxCell>
        <mxCell id="bAg9H6TD8A-TBEvWQ7Vd-37" value="Funktioner" style="text;strokeColor=none;fillColor=none;html=1;fontSize=24;fontStyle=1;verticalAlign=middle;align=center;" parent="1" vertex="1">
          <mxGeometry x="190" y="90" width="100" height="40" as="geometry" />
        </mxCell>
        <mxCell id="bAg9H6TD8A-TBEvWQ7Vd-38" value="selectAllBills()&lt;div&gt;&lt;br&gt;&lt;/div&gt;&lt;div&gt;populateBillField()&lt;/div&gt;&lt;div&gt;&lt;br&gt;&lt;/div&gt;&lt;div&gt;insertNewBill()&lt;/div&gt;&lt;div&gt;&lt;br&gt;&lt;/div&gt;&lt;div&gt;updateBillStatus()&lt;/div&gt;&lt;div&gt;&lt;br&gt;&lt;/div&gt;&lt;div&gt;sanitizeInput()&lt;br&gt;&lt;/div&gt;&lt;div&gt;&lt;br&gt;&lt;/div&gt;&lt;div&gt;checkUserRole()&lt;br&gt;&lt;/div&gt;" style="text;html=1;align=left;verticalAlign=middle;whiteSpace=wrap;rounded=0;" parent="1" vertex="1">
          <mxGeometry x="175" y="130" width="130" height="130" as="geometry" />
        </mxCell>
        <mxCell id="bAg9H6TD8A-TBEvWQ7Vd-39" value="" style="rounded=0;whiteSpace=wrap;html=1;strokeColor=#a85100;" parent="1" vertex="1">
          <mxGeometry x="400" y="40" width="240" height="240" as="geometry" />
        </mxCell>
        <mxCell id="bAg9H6TD8A-TBEvWQ7Vd-40" value="boss.php" style="text;html=1;align=center;verticalAlign=middle;whiteSpace=wrap;rounded=0;strokeColor=none;" parent="1" vertex="1">
          <mxGeometry x="490" y="50" width="60" height="30" as="geometry" />
        </mxCell>
        <mxCell id="bAg9H6TD8A-TBEvWQ7Vd-41" value="Funktioner" style="text;strokeColor=none;fillColor=none;html=1;fontSize=24;fontStyle=1;verticalAlign=middle;align=center;" parent="1" vertex="1">
          <mxGeometry x="470" y="90" width="100" height="40" as="geometry" />
        </mxCell>
        <mxCell id="bAg9H6TD8A-TBEvWQ7Vd-42" value="selectAllWorkers()&lt;div&gt;&lt;br&gt;&lt;/div&gt;&lt;div&gt;populateWorkerField()&lt;/div&gt;&lt;div&gt;&lt;br&gt;&lt;/div&gt;&lt;div&gt;checkUserRole()&lt;br&gt;&lt;/div&gt;" style="text;html=1;align=left;verticalAlign=middle;whiteSpace=wrap;rounded=0;strokeColor=none;" parent="1" vertex="1">
          <mxGeometry x="455" y="130" width="130" height="130" as="geometry" />
        </mxCell>
        <mxCell id="bAg9H6TD8A-TBEvWQ7Vd-45" value="" style="endArrow=classic;startArrow=classic;html=1;rounded=0;exitX=1;exitY=0;exitDx=0;exitDy=0;entryX=0;entryY=1;entryDx=0;entryDy=0;" parent="1" source="bAg9H6TD8A-TBEvWQ7Vd-1" target="bAg9H6TD8A-TBEvWQ7Vd-39" edge="1">
          <mxGeometry width="50" height="50" relative="1" as="geometry">
            <mxPoint x="350" y="299.58000000000004" as="sourcePoint" />
            <mxPoint x="390" y="299.58000000000004" as="targetPoint" />
          </mxGeometry>
        </mxCell>
        <mxCell id="bAg9H6TD8A-TBEvWQ7Vd-46" value="" style="endArrow=classic;startArrow=classic;html=1;rounded=0;entryX=0.5;entryY=1;entryDx=0;entryDy=0;" parent="1" target="bAg9H6TD8A-TBEvWQ7Vd-35" edge="1">
          <mxGeometry width="50" height="50" relative="1" as="geometry">
            <mxPoint x="240" y="310" as="sourcePoint" />
            <mxPoint x="280" y="280" as="targetPoint" />
          </mxGeometry>
        </mxCell>
        <mxCell id="bAg9H6TD8A-TBEvWQ7Vd-47" value="" style="rounded=0;whiteSpace=wrap;html=1;strokeColor=#319fff;" parent="1" vertex="1">
          <mxGeometry x="400" y="900" width="240" height="240" as="geometry" />
        </mxCell>
        <mxCell id="bAg9H6TD8A-TBEvWQ7Vd-48" value="workHours.php" style="text;html=1;align=center;verticalAlign=middle;whiteSpace=wrap;rounded=0;" parent="1" vertex="1">
          <mxGeometry x="490" y="910" width="60" height="30" as="geometry" />
        </mxCell>
        <mxCell id="bAg9H6TD8A-TBEvWQ7Vd-49" value="Funktioner" style="text;strokeColor=none;fillColor=none;html=1;fontSize=24;fontStyle=1;verticalAlign=middle;align=center;" parent="1" vertex="1">
          <mxGeometry x="470" y="950" width="100" height="40" as="geometry" />
        </mxCell>
        <mxCell id="bAg9H6TD8A-TBEvWQ7Vd-50" value="&lt;div&gt;updateHours()&lt;/div&gt;&lt;div&gt;&lt;br&gt;&lt;/div&gt;&lt;div&gt;sanitizeInput()&lt;/div&gt;" style="text;html=1;align=left;verticalAlign=middle;whiteSpace=wrap;rounded=0;" parent="1" vertex="1">
          <mxGeometry x="455" y="990" width="130" height="130" as="geometry" />
        </mxCell>
        <mxCell id="bAg9H6TD8A-TBEvWQ7Vd-51" value="" style="endArrow=classic;startArrow=classic;html=1;rounded=0;entryX=0;entryY=0.5;entryDx=0;entryDy=0;exitX=1;exitY=1;exitDx=0;exitDy=0;" parent="1" source="bAg9H6TD8A-TBEvWQ7Vd-1" target="bAg9H6TD8A-TBEvWQ7Vd-47" edge="1">
          <mxGeometry width="50" height="50" relative="1" as="geometry">
            <mxPoint x="300" y="990" as="sourcePoint" />
            <mxPoint x="350" y="940" as="targetPoint" />
            <Array as="points">
              <mxPoint x="380" y="550" />
              <mxPoint x="360" y="580" />
              <mxPoint x="380" y="580" />
              <mxPoint x="360" y="600" />
              <mxPoint x="380" y="600" />
              <mxPoint x="360" y="620" />
              <mxPoint x="380" y="620" />
              <mxPoint x="380" y="1020" />
            </Array>
          </mxGeometry>
        </mxCell>
        <mxCell id="bAg9H6TD8A-TBEvWQ7Vd-52" value="" style="rounded=0;whiteSpace=wrap;html=1;strokeColor=#319fff;" parent="1" vertex="1">
          <mxGeometry x="680" y="310" width="240" height="240" as="geometry" />
        </mxCell>
        <mxCell id="bAg9H6TD8A-TBEvWQ7Vd-53" value="allCustomers.php" style="text;html=1;align=center;verticalAlign=middle;whiteSpace=wrap;rounded=0;" parent="1" vertex="1">
          <mxGeometry x="770" y="320" width="60" height="30" as="geometry" />
        </mxCell>
        <mxCell id="bAg9H6TD8A-TBEvWQ7Vd-54" value="Funktioner" style="text;strokeColor=none;fillColor=none;html=1;fontSize=24;fontStyle=1;verticalAlign=middle;align=center;" parent="1" vertex="1">
          <mxGeometry x="750" y="360" width="100" height="40" as="geometry" />
        </mxCell>
        <mxCell id="bAg9H6TD8A-TBEvWQ7Vd-55" value="&lt;div&gt;selectAllCustomers()&lt;/div&gt;&lt;div&gt;&lt;br&gt;&lt;/div&gt;&lt;div&gt;populateCustomerField()&lt;/div&gt;&lt;div&gt;&lt;br&gt;&lt;/div&gt;&lt;div&gt;insertNewCustomer()&lt;/div&gt;&lt;div&gt;&lt;br&gt;&lt;/div&gt;&lt;div&gt;updateCustomer()&lt;/div&gt;&lt;div&gt;&lt;br&gt;&lt;/div&gt;&lt;div&gt;sanitizeInput()&lt;/div&gt;&lt;div&gt;&lt;br&gt;&lt;/div&gt;&lt;div&gt;checkUserRole()&lt;br&gt;&lt;/div&gt;" style="text;html=1;align=left;verticalAlign=middle;whiteSpace=wrap;rounded=0;" parent="1" vertex="1">
          <mxGeometry x="735" y="400" width="130" height="150" as="geometry" />
        </mxCell>
        <mxCell id="bAg9H6TD8A-TBEvWQ7Vd-56" value="" style="endArrow=classic;html=1;rounded=0;exitX=1;exitY=0.5;exitDx=0;exitDy=0;entryX=0;entryY=0.5;entryDx=0;entryDy=0;" parent="1" source="bAg9H6TD8A-TBEvWQ7Vd-6" target="bAg9H6TD8A-TBEvWQ7Vd-52" edge="1">
          <mxGeometry width="50" height="50" relative="1" as="geometry">
            <mxPoint x="670" y="500" as="sourcePoint" />
            <mxPoint x="720" y="450" as="targetPoint" />
          </mxGeometry>
        </mxCell>
        <mxCell id="bAg9H6TD8A-TBEvWQ7Vd-57" value="" style="rounded=0;whiteSpace=wrap;html=1;strokeColor=#319fff;" parent="1" vertex="1">
          <mxGeometry x="680" y="630" width="240" height="290" as="geometry" />
        </mxCell>
        <mxCell id="bAg9H6TD8A-TBEvWQ7Vd-58" value="allCars.php" style="text;html=1;align=center;verticalAlign=middle;whiteSpace=wrap;rounded=0;" parent="1" vertex="1">
          <mxGeometry x="770" y="640" width="60" height="30" as="geometry" />
        </mxCell>
        <mxCell id="bAg9H6TD8A-TBEvWQ7Vd-59" value="Funktioner" style="text;strokeColor=none;fillColor=none;html=1;fontSize=24;fontStyle=1;verticalAlign=middle;align=center;" parent="1" vertex="1">
          <mxGeometry x="750" y="680" width="100" height="40" as="geometry" />
        </mxCell>
        <mxCell id="bAg9H6TD8A-TBEvWQ7Vd-61" value="" style="endArrow=classic;html=1;rounded=0;exitX=1;exitY=0.75;exitDx=0;exitDy=0;entryX=0;entryY=0.25;entryDx=0;entryDy=0;" parent="1" source="bAg9H6TD8A-TBEvWQ7Vd-6" target="bAg9H6TD8A-TBEvWQ7Vd-57" edge="1">
          <mxGeometry width="50" height="50" relative="1" as="geometry">
            <mxPoint x="670" y="620" as="sourcePoint" />
            <mxPoint x="720" y="570" as="targetPoint" />
            <Array as="points">
              <mxPoint x="660" y="490" />
              <mxPoint x="660" y="690" />
            </Array>
          </mxGeometry>
        </mxCell>
        <mxCell id="bAg9H6TD8A-TBEvWQ7Vd-62" value="&lt;div&gt;selectAllCar()&lt;/div&gt;&lt;div&gt;&lt;br&gt;&lt;/div&gt;&lt;div&gt;populateCarField()&lt;/div&gt;&lt;div&gt;&lt;br&gt;&lt;/div&gt;&lt;div&gt;insertNewCar()&lt;/div&gt;&lt;div&gt;&lt;br&gt;&lt;/div&gt;&lt;div&gt;updateCar()&lt;/div&gt;&lt;div&gt;&lt;br&gt;&lt;/div&gt;&lt;div&gt;sanitizeInput()&lt;/div&gt;&lt;div&gt;&lt;br&gt;&lt;/div&gt;&lt;div&gt;carServiceHistory()&lt;/div&gt;" style="text;html=1;align=left;verticalAlign=middle;whiteSpace=wrap;rounded=0;" parent="1" vertex="1">
          <mxGeometry x="735" y="720" width="130" height="200" as="geometry" />
        </mxCell>
        <mxCell id="bAg9H6TD8A-TBEvWQ7Vd-64" value="register.php" style="text;html=1;align=center;verticalAlign=middle;whiteSpace=wrap;rounded=0;strokeColor=none;" parent="1" vertex="1">
          <mxGeometry x="190" y="610" width="60" height="30" as="geometry" />
        </mxCell>
        <mxCell id="th-0m9Ut5Wv_U_VVVqaV-1" value="" style="shape=actor;whiteSpace=wrap;html=1;strokeColor=default;fillColor=#000000;" vertex="1" parent="1">
          <mxGeometry x="30" y="370" width="40" height="60" as="geometry" />
        </mxCell>
        <mxCell id="th-0m9Ut5Wv_U_VVVqaV-2" value="Everyoune" style="text;html=1;align=center;verticalAlign=middle;whiteSpace=wrap;rounded=0;" vertex="1" parent="1">
          <mxGeometry x="20" y="430" width="60" height="30" as="geometry" />
        </mxCell>
      </root>
    </mxGraphModel>
  </diagram>
</mxfile>
